# xmcd
#
# Track frame offsets: 
#        150
#        15787
#        30074
#        47811
#        64348
#        81935
#        103047
#        117484
#        132821
#        147558
#        162070
#        179507
#        196044
#        212956
#        227993
#        245055
#        260767
#        276029
#        295491
#        307603
#
# Disc length: 4311 seconds
#
# Revision: 0
# Processed by: cddbd v1.5.2PL0 Copyright (c) Steve Scherf et al.
# Submitted via: ExactAudioCopy v0.95b3
#
DISCID=2010d514
DTITLE=Various Artist - Dance Radio 2007 04
DYEAR=2007
DGENRE=Dance
TTITLE0=September - Cry For You (Radio Edit)
TTITLE1=David Guetta - The World Is Mine (F.M.I.F. Radio Edit)
TTITLE2=Hilary Duff - With Love (Richard Vission vs. Dave Aude' Edit)
TTITLE3=Get-Far - Shining Star (Pornocult Radio Edit)
TTITLE4=Kimberley Locke - Change (Jason Nevins Dance Radio Edit)
TTITLE5=Killers, the - Read My Mind (Gabriel and Dresden Radio Edit)
TTITLE6=Suite 117 - Smaller (Dave Aude Radio Edit)
TTITLE7=Carl Cox ft. Saffron - Get What You Paid 4! (Jon Rundell Radio
TTITLE7=Edit)
TTITLE8=Jennifer Carbonell - Time (Hernandez vs. DJ Tyo Radio Edit)
TTITLE9=Chris Lake ft. Laura V - Changes (Radio Edit)
TTITLE10=Tiesto - In The Dark (Radio Edit)
TTITLE11=Lola - I Can't Take It (Josh Harris Radio Edit)
TTITLE12=Ror-Shak ft. Julee Cruise - Fate or Faith (Ror-Shak Vs Static
TTITLE12=Revenger Radio Edit)
TTITLE13=Eddie Thoneick - Deeper Love (Eddie Thoneick Big Room Radio M
TTITLE13=ix)
TTITLE14=A Girl Called Jane - He's Alive (Jody's Radio Edit)
TTITLE15=Edun - Put Em Up (Radio Edit)
TTITLE16=Ralph Falcon - I Need Someone (Cube Guys Remix)
TTITLE17=Young Love - Discotech (Chris Cox Radio Edit)
TTITLE18=Mason vs Princess Superstar - Perfect (Exceeder) (Radio Edit)
TTITLE19=Fall Out Boy - This Ain't A Scene, It's An Arms Race
EXTD=
EXTT0=
EXTT1=
EXTT2=
EXTT3=
EXTT4=
EXTT5=
EXTT6=
EXTT7=
EXTT8=
EXTT9=
EXTT10=
EXTT11=
EXTT12=
EXTT13=
EXTT14=
EXTT15=
EXTT16=
EXTT17=
EXTT18=
EXTT19=
PLAYORDER=
